# xmcd CD database file
#
# Track frame offsets:
#	150
#	15965
#	38084
#	53420
#	71660
#	94226
#	116119
#	131767
#	155440
#	174331
#	194496
#
# Disc length: 3195 seconds
#
# Revision: 2
# Processed by: cddbd v1.5.2PL0 Copyright (c) Steve Scherf et al.
# Submitted via: CDex 1.70beta2
#
DISCID=8c0c790b
DTITLE=Jud Johnson Band - Live In Houston
DYEAR=2009
DGENRE=Jazz
TTITLE0=May I Have This Dance
TTITLE1=Stop, Stop
TTITLE2=Respect The Life
TTITLE3=Someone's Out To Get Me
TTITLE4=Jam
TTITLE5=One Minute Past Twelve
TTITLE6=Midnight Drive In LA
TTITLE7=Just You And Me
TTITLE8=One More Time
TTITLE9=Let's Move Together
TTITLE10=When The Lights Are Out
EXTD=YEAR: 2009
EXTT0=
EXTT1=
EXTT2=
EXTT3=
EXTT4=
EXTT5=
EXTT6=
EXTT7=
EXTT8=
EXTT9=
EXTT10=
PLAYORDER=
